# xmcd CD database file
#
# Track frame offsets:
#	150
#	16645
#	36230
#	55705
#	79265
#	100255
#	117870
#	138220
#	152905
#	175225
#	192230
#	208760
#	232710
#	248490
#	264970
#	284365
#	312115
#
# Disc length: 4388 seconds
#
# Revision: 0
# Processed by: cddbd v1.5.2PL0 Copyright (c) Steve Scherf et al.
# Submitted via: CDex 1.70beta3
#
DISCID=d5112211
DTITLE=Red Hot Chili Peppers - By The Way
DYEAR=1900
DGENRE=ロック
TTITLE0=By The Way
TTITLE1=Universally Speaking
TTITLE2=This Is The Place
TTITLE3=Dosed
TTITLE4=Don't Forget Me
TTITLE5=The Zephyr Song
TTITLE6=Can't Stop
TTITLE7=I Could Die For You
TTITLE8=Midnight
TTITLE9=Throw Away Your Television
TTITLE10=Cabron
TTITLE11=Tear
TTITLE12=On Mercury
TTITLE13=Minor Thing
TTITLE14=Warm Tape
TTITLE15=Venice Queen
TTITLE16=Time
EXTD=
EXTT0=
EXTT1=
EXTT2=
EXTT3=
EXTT4=
EXTT5=
EXTT6=
EXTT7=
EXTT8=
EXTT9=
EXTT10=
EXTT11=
EXTT12=
EXTT13=
EXTT14=
EXTT15=
EXTT16=
PLAYORDER=
